<svg width="51" height="57" viewBox="0 0 51 57" fill="none" xmlns="http://www.w3.org/2000/svg">
<path d="M25.8627 25.3937C17.9906 25.3937 16.3954 13.3814 16.3954 13.3814C15.4591 7.13087 18.3027 0.0771484 25.7586 0.0771484C33.2492 0.0771484 36.0928 7.13087 35.1565 13.3814C35.1565 13.3814 33.7347 25.3937 25.8627 25.3937ZM25.8627 34.368L35.2952 28.0127C43.5834 28.0127 50.97 36.1489 50.97 43.8312V52.5261C50.97 52.5261 38.3123 56.472 25.8627 56.472C13.205 56.472 0.755371 52.5261 0.755371 52.5261V43.8312C0.755371 35.9743 7.48302 28.1873 16.2567 28.1873L25.8627 34.368Z" fill="black"/>
</svg>
