<svg width="48" height="49" viewBox="0 0 48 49" fill="none" xmlns="http://www.w3.org/2000/svg">
<path d="M46.1059 34.7379H14.2432L15.843 31.0388L42.4247 30.9841C43.3236 30.9841 44.0941 30.2552 44.2546 29.2469L47.9358 5.85546C48.0321 5.24197 47.8876 4.61026 47.5345 4.13041C47.36 3.89425 47.1423 3.70401 46.8965 3.57291C46.6507 3.4418 46.3828 3.37295 46.1112 3.37114L12.2956 3.24358L12.0067 1.70076C11.8248 0.716747 11.0436 0 10.1554 0H1.88875C1.38782 0 0.907413 0.225902 0.553203 0.628012C0.198993 1.03012 0 1.5755 0 2.14417C0 2.71284 0.198993 3.25821 0.553203 3.66032C0.907413 4.06243 1.38782 4.28834 1.88875 4.28834H8.62512L9.88786 11.1035L12.9965 28.19L8.99432 35.6065C8.78647 35.925 8.66129 36.3031 8.63292 36.6982C8.60455 37.0932 8.67414 37.4894 8.8338 37.8418C9.15483 38.5646 9.80225 39.0202 10.5192 39.0202H13.8794C13.163 40.1003 12.7761 41.4159 12.7772 42.7679C12.7772 46.2059 15.2384 49 18.2669 49C21.2953 49 23.7565 46.2059 23.7565 42.7679C23.7565 41.4134 23.3606 40.0953 22.6543 39.0202H31.2741C30.5578 40.1003 30.1708 41.4159 30.1719 42.7679C30.1719 46.2059 32.6332 49 35.6616 49C38.69 49 41.1513 46.2059 41.1513 42.7679C41.1513 41.4134 40.7553 40.0953 40.049 39.0202H46.1112C47.1493 39.0202 48 38.0605 48 36.876C47.9969 36.308 47.796 35.7643 47.4412 35.3638C47.0863 34.9632 46.6063 34.7383 46.1059 34.7379ZM13.0822 7.47118L43.8908 7.58659L40.873 26.7687L16.6724 26.8173L13.0822 7.47118ZM18.2669 44.6874C17.3359 44.6874 16.5761 43.8248 16.5761 42.7679C16.5761 41.711 17.3359 40.8485 18.2669 40.8485C19.1979 40.8485 19.9576 41.711 19.9576 42.7679C19.9576 43.277 19.7795 43.7652 19.4624 44.1252C19.1453 44.4851 18.7153 44.6874 18.2669 44.6874ZM35.6616 44.6874C34.7306 44.6874 33.9708 43.8248 33.9708 42.7679C33.9708 41.711 34.7306 40.8485 35.6616 40.8485C36.5926 40.8485 37.3524 41.711 37.3524 42.7679C37.3524 43.277 37.1742 43.7652 36.8571 44.1252C36.5401 44.4851 36.11 44.6874 35.6616 44.6874Z" fill="#CBCBCB"/>
</svg>
